<?xml version="1.0" encoding="UTF-8"?>
<svg id="Layer_1" data-name="Layer 1" xmlns="http://www.w3.org/2000/svg" viewBox="75 30 115 70">
           
             <defs>
    <style>
      .cls-1, .cls-2, .cls-3 {
        fill: #fff;
      }

      .cls-4 {
        font-family: Baloo2-Regular, 'Baloo 2';
        font-size: 6.01px;
        font-variation-settings: 'wght' 400;
      }

      .cls-5 {
        fill: #f8991d;
      }

      .cls-6 {
        letter-spacing: -.02em;
      }

      .cls-2, .cls-7 {
        letter-spacing: 0em;
      }

      .cls-8 {
        letter-spacing: .01em;
      }

      .cls-9 {
        fill: #fbaf57;
      }

      .cls-3 {
        letter-spacing: -.01em;
      }

      .cls-10 {
        letter-spacing: -.01em;
      }

      .cls-11 {
        fill: #231f20;
      }

      .cls-12 {
        letter-spacing: 0em;
      }
    </style>
  </defs>
 <rect class="cls-11" x="0" y="0" width="255.12" height="141.73"/>
            <g>
              <path class="cls-5" d="m94.94,73.68l.77,4.94c.08.53.49.94,1.02,1.02l4.94.77-4.94.77c-.53.08-.94.49-1.02,1.02l-.77,4.94-.77-4.94c-.08-.53-.49-.94-1.02-1.02l-4.94-.77,4.94-.77c.53-.08.94-.49,1.02-1.02l.77-4.94Z"/>
              <path class="cls-5" d="m113.63,60.11c0,.16,0,.3-.02.39-.08.32-.89.06-.89.05-.51-.12-.65-.15-.62-.44.02-.1.05-.22.09-.39.21,0,.11.2.2.29.07.07.17.12.22.21.05.1.52.12.7.03.1-.06.34-.18.35-.18-.05-.16-.12-.32-.14-.48-.02-.13.02-.27.04-.46.13.01.23.05.33.08l-2.02-3.61s-.05.02-.08.04c-.02.02-.11-.06-.22-.12.05-.06.11-.11.17-.17l-.81-1.43c-.3,0-.48-.1-.87-.39.16-.11.32-.21.48-.32l-2.14-3.82c-.16-.28-.42-.46-.7-.52.08.26-.08.33-.27.27-.13-.05-.26-.11-.36-.24-.23.08-.44.24-.58.49l-2.32,4.15c.3.3.59.61.52,1.14-.1.13-.35.48-.35.48,0,0-.11-.1-.14-.16-.15-.46-.23-.69-.37-.86l-.79,1.41c-.18.34-.18.74,0,1.07l.81,1.45c.14.04.23.25.37.31.02.02.07-.01.18-.03-.02-.11-.03-.23-.05-.35-.04-.17-.13-.35-.12-.52,0-.11.1-.27.2-.33.12-.09.27-.05.31.15.01.06.04.14.09.18.22.15.69.07.65.43-.04.34-.23.72-.46.99-.14.16-.28.33-.44.48l.51.91c.19.35.56.56.96.56h.18s.02-.04.04-.06c.01.02.02.04.03.06h3.26c-.24-.2-.51-.33-.85-.37-.14-.02-.32-.03-.41-.12-.35-.35-.81-.23-1.22-.32,0,0,0,.01-.01.01h0c-.42-.1-.56.39-.97.44-.05-.03-.15-.05-.23-.12-.15-.14-.27-.35-.44-.43-.11-.06-.3.07-.46.1-.02,0-.06-.11-.1-.17.33-.37.91-.31,1.22-.71h-.01s-.01-.01-.02-.01c-.09.02-.17.05-.25.06-.05,0-.1-.07-.16-.1.05-.03.12-.1.15-.09.09.02.18.08.26.13.02,0,.04,0,.06-.02.14-.06.28-.12.52-.23-.08.32-.13.53-.19.79.21.12.42.24.62.35.02-.1.01-.28.05-.3.23-.07.47-.12.71-.13.09-.01.2.1.26.18.36.45.77.48,1.22.15.37.27.7.55,1.05.79.08.05.13.09.18.12h2.41c.47,0,.84-.29,1-.67-.1-.03-.3-.08-.32-.07Zm-6.22.18c.05.12.09.22.14.33-.06.02-.15.07-.17.05-.08-.07-.13-.16-.19-.24.05-.03.1-.06.22-.14Zm-.65-8.21s.03.03.05.05c.01.03.02.07.04.09-.04.05-.07.09-.11.13-.05-.06-.09-.13-.14-.19.05-.03.11-.08.16-.08Zm-.84-.28s.04.05.04.07c-.03.03-.07.06-.11.09,0-.05,0-.09,0-.14,0-.01.05-.01.08-.02Zm.48,2.63c-.32.05-.63.18-.94.41-.13-.21-.25-.42-.41-.7.27-.11.58-.15.74-.32.2-.22.4-.27.71-.24-.3.28-.19.57-.1.85Zm.2,1.79c.51-.4.62.04.85.21q-.27.15-.85-.21Zm1.06-2.21c.07.19.12.34.22.62q-.52-.21-.22-.62Zm-.36-1.29c.44-.15.51.2.72.45q-.44-.04-.72-.45Zm.82-2.76s-.03-.06-.04-.09c.03-.01.07-.04.09-.03.02.02.03.06.04.09-.03.01-.06.02-.09.03Zm1.97,4.47s.04.04.05.06c-.01.03-.02.05-.03.07-.03-.03-.06-.06-.09-.09.03-.02.05-.05.07-.04Zm-.48,2.78s-.06-.02-.09-.03c.03-.04.06-.07.1-.11.02.03.04.05.07.07-.03.02-.05.05-.08.07Zm1.23-.48c-.06.18.04.44-.25.51-.21.06-.38-.09-.52-.42-.01-.04-.03-.07-.04-.1-.04-.2-.13-.44.09-.58.09-.06.27-.02.39,0,.23.06.34.23.34.47,0,.04,0,.07,0,.11Zm.36-.89s-.06-.07-.09-.1c.03-.01.06-.04.07-.04.02,0,.04.04.05.07-.01.02-.02.05-.03.07Zm.16,2s-.04-.05-.03-.07c0-.03.04-.04.06-.06.01.03.02.05.03.08-.02.02-.04.04-.06.05Zm1.26,1.12c-.1-.05-.2-.07-.2-.11-.01-.09.02-.18.04-.27.06.02.17.04.18.08.02.09-.01.19-.02.3Zm-.73-1.76c.02-.09.09-.16.15-.24t-.02,0s.02-.01.03-.01c0,0,0,.01-.01.01.09.05.17.09.25.14,0,0,0-.02,0-.02.02.01.03,0,.04.01.02-.07.03-.14.05-.22.04.05.12.09.12.13-.01.13-.08.13-.17.09v.02s-.02,0-.03-.01c.03.09.09.19.07.26-.03.11-.11.24-.21.3-.05.03-.23-.03-.26-.09-.04-.1-.03-.24,0-.36Z"/>
              <path class="cls-5" d="m105.28,46.53c-.01.06-.02.13-.05.19-.01.05-.04.11-.07.16l-16.32,29.16c-.19.34-.56.56-.96.56h-4.9c8.36-6.9,13.69-17.34,13.69-29.02,0-.7-.02-1.39-.06-2.08.19-.17.44-.26.7-.26h6.9c.7,0,1.19.65,1.07,1.29Z"/>
              <path class="cls-9" d="m96.67,47.58c0,11.68-5.33,22.12-13.69,29.02h-1.99c-.83,0-1.36-.9-.95-1.63l5.47-9.78.25,1.58.33,2.13.55-3.58.17-1.09c.08-.5.47-.89.97-.96l.33-.05,2.16-.34.18-.03,2-.31-1.9-.3-.39-.06-1.09-.17-1.29-.2c-.11-.02-.22-.05-.32-.11l1.94-3.46,1.66-2.97,5.29-9.46c.03-.06.07-.12.12-.17.04-.05.09-.1.14-.14.04.69.06,1.38.06,2.08Z"/>
              <path class="cls-5" d="m87.46,61.7l-1.95,3.49-.15-.96c-.03-.2-.12-.39-.23-.54-.18-.22-.44-.38-.74-.42l-4.67-.73,4.67-.73c.5-.08.89-.47.97-.97l.73-4.67.7,4.55.02.12c.06.39.31.71.65.86Z"/>
              <path class="cls-9" d="m88.69,46.27v7.81c0,.64.85.85,1.15.3l2.65-4.82c.32-.58.48-1.22.48-1.88v-1.4c0-.65-.52-1.17-1.17-1.17h-1.94c-.65,0-1.17.53-1.17,1.17Z"/>
              <g>
                <path class="cls-1" d="m109.36,64.94c-.27,0-.53.02-.78.06-.25.04-.44.08-.57.11v8.87c-.18.11-.44.22-.79.31-.35.1-.79.14-1.3.14-.79,0-1.4-.18-1.84-.55-.44-.37-.66-.98-.66-1.83v-5.74c0-.53-.13-.89-.38-1.08-.26-.19-.67-.29-1.23-.29-.29,0-.55.02-.79.06s-.42.08-.55.11v6.99c0,1.09.22,1.98.66,2.68.44.7,1.07,1.21,1.89,1.53.82.32,1.78.48,2.88.48.91,0,1.73-.09,2.44-.28.71-.18,1.3-.41,1.77-.68.34-.21.56-.44.68-.69.12-.25.18-.56.18-.92v-7.91c0-.53-.13-.89-.38-1.08-.26-.19-.67-.29-1.23-.29Z"/>
                <path class="cls-1" d="m128.68,65.16c-.69-.27-1.46-.41-2.31-.41-.93,0-1.73.15-2.4.45-.5.22-.93.48-1.33.76-.38-.35-.82-.65-1.37-.85-.66-.24-1.38-.36-2.16-.36s-1.54.1-2.27.31c-.73.21-1.34.48-1.84.82-.32.21-.56.44-.72.69-.16.25-.24.56-.24.95v7.71c0,.51.13.87.4,1.07.26.2.67.3,1.21.3.29,0,.55-.02.79-.06s.42-.08.55-.13v-8.7c.24-.16.53-.3.88-.42.34-.12.72-.18,1.14-.18.58,0,1.05.15,1.43.45.38.3.56.76.56,1.38v6.3c0,.51.13.87.38,1.07.26.2.67.3,1.23.3.27,0,.53-.02.78-.06.25-.04.44-.08.56-.13v-7.81c0-.23-.03-.46-.08-.68.25-.22.53-.41.86-.55.41-.18.83-.26,1.26-.26.59,0,1.07.15,1.42.45.35.3.53.76.53,1.38v6.3c0,.51.13.87.4,1.07s.68.3,1.24.3c.27,0,.53-.02.78-.06s.43-.08.54-.13v-7.57c0-.96-.2-1.75-.6-2.36-.4-.61-.95-1.05-1.63-1.32Z"/>
                <path class="cls-1" d="m142.4,64.85c-.24,0-.46.03-.67.08-.21.06-.41.13-.6.23-.19.93-.43,1.91-.71,2.93-.28,1.03-.57,2.02-.88,2.97-.3.95-.61,1.78-.91,2.49h-.1c-.48-1.27-.93-2.51-1.36-3.73-.42-1.22-.85-2.45-1.26-3.7-.14-.48-.35-.81-.61-1-.26-.18-.6-.28-1.02-.28-.32,0-.62.06-.89.19-.27.13-.5.29-.67.48.37,1.27.73,2.42,1.08,3.47.35,1.05.69,1.97,1.02,2.76.33.79.62,1.45.88,1.98.34.67.64,1.13.91,1.38s.54.41.82.49c-.26.46-.57.94-.94,1.42-.37.48-.75.93-1.14,1.36-.39.42-.76.79-1.12,1.09.06.43.25.8.56,1.09.31.3.72.45,1.21.45.64,0,1.31-.37,2-1.12.69-.75,1.44-1.85,2.26-3.3.35-.62.7-1.33,1.05-2.1.34-.78.67-1.58.99-2.42s.59-1.63.83-2.4c.24-.77.43-1.47.56-2.1.14-.63.2-1.14.2-1.53,0-.43-.15-.74-.44-.92-.3-.18-.65-.28-1.05-.28Z"/>
                <path class="cls-5" d="m160.6,65.16c-.69-.27-1.46-.41-2.31-.41-.93,0-1.73.15-2.4.45-.5.22-.93.48-1.33.76-.38-.35-.82-.65-1.36-.85-.66-.24-1.38-.36-2.16-.36s-1.54.1-2.27.31c-.73.21-1.34.48-1.84.82-.32.21-.56.44-.72.69-.16.25-.24.56-.24.95v7.71c0,.51.13.87.4,1.07s.67.3,1.21.3c.29,0,.55-.02.79-.06s.42-.08.55-.13v-8.7c.24-.16.53-.3.88-.42s.73-.18,1.14-.18c.58,0,1.05.15,1.43.45.38.3.56.76.56,1.38v6.3c0,.51.13.87.38,1.07s.66.3,1.23.3c.27,0,.53-.02.78-.06.25-.04.44-.08.56-.13v-7.81c0-.23-.03-.46-.08-.68.25-.22.53-.41.86-.55.41-.18.83-.26,1.26-.26.59,0,1.06.15,1.42.45.35.3.53.76.53,1.38v6.3c0,.51.13.87.4,1.07.26.2.68.3,1.24.3.27,0,.53-.02.78-.06s.43-.08.54-.13v-7.57c0-.96-.2-1.75-.6-2.36-.4-.61-.95-1.05-1.63-1.32Z"/>
                <path class="cls-5" d="m174.03,65.75c-.93-.67-2.18-1-3.75-1-.59,0-1.19.05-1.79.15-.6.09-1.12.25-1.57.45-.64.28-.96.7-.96,1.28,0,.24.06.47.19.69.13.23.27.4.43.53.47-.22.99-.41,1.59-.57.59-.16,1.2-.25,1.82-.25.8,0,1.43.15,1.87.44.44.29.66.75.66,1.39v.43l-3.27.34c-1.3.13-2.29.48-2.97,1.05-.68.57-1.02,1.39-1.02,2.46,0,1.22.46,2.13,1.37,2.75.91.62,2.17.93,3.77.93.87,0,1.64-.09,2.33-.26.69-.16,1.26-.38,1.71-.63.29-.18.52-.38.71-.6.18-.23.28-.53.28-.92v-5.52c0-1.43-.47-2.48-1.4-3.14Zm-1.49,8.35c-.18.11-.46.22-.84.31-.38.1-.82.15-1.3.15-.77,0-1.34-.14-1.7-.41-.37-.27-.56-.64-.56-1.11,0-.44.18-.79.52-1.02.34-.23.85-.37,1.5-.42l2.38-.24v2.74Z"/>
              </g>
              <text class="cls-4" transform="translate(142.16 84.08)"><tspan class="cls-1" x="0" y="0">čis</tspan><tspan class="cls-3" x="7.01" y="0">t</tspan><tspan class="cls-2" x="9.15" y="0">enie </tspan><tspan class="cls-5" x="21.35" y="0">striech,</tspan><tspan class="cls-5"><tspan class="cls-6" x="0" y="5.5">f</tspan><tspan class="cls-7" x="2.25" y="5.5">a</tspan><tspan class="cls-8" x="5.25" y="5.5">s</tspan><tspan x="8" y="5.5">ád a chodní</tspan><tspan class="cls-12" x="37.24" y="5.5">k</tspan><tspan class="cls-10" x="40.1" y="5.5">o</tspan><tspan x="43.35" y="5.5">v</tspan></tspan></text>
            </g>
          </svg>